<svg width="382" height="571" viewBox="0 0 382 571" fill="none" xmlns="http://www.w3.org/2000/svg">
<path d="M211 442.5H138L320 259.5C320 259.5 333 242 324 221C315 200 291.5 200 291.5 200L241 200.5L292.5 148C292.5 148 303.5 148.5 309 149.5C314.5 150.5 333.5 155.5 345.5 165C357.5 174.5 366.5 188 366.5 188C390 224.5 384 266.167 355.5 298L211 442.5Z" fill="#232323"/>
<path d="M170.017 0L243.017 0L61.0173 183C61.0173 183 48.0173 200.5 57.0173 221.5C66.0173 242.5 89.5173 242.5 89.5173 242.5L140.017 242L88.5173 294.5C88.5173 294.5 77.5173 294 72.0173 293C66.5173 292 47.5173 287 35.5173 277.5C23.5173 268 14.5173 254.5 14.5173 254.5C-8.98265 218 -2.98283 176.333 25.5172 144.5L170.017 0Z" fill="#232323"/>
<path d="M375.5 0H303.5L107 198.5H179.5L375.5 0Z" fill="#232323"/>
<path d="M272.5 244H200.5L4 442.5H76.5L272.5 244Z" fill="#232323"/>
<path d="M10.9 534.7C12.1667 535.567 13.9333 536.4 16.2 537.2C18.5333 537.933 21.1667 538.3 24.1 538.3C27.8333 538.3 30.8667 537.4 33.2 535.6C35.5333 533.733 36.7 530.833 36.7 526.9C36.7 524.3 36.0333 522.033 34.7 520.1C33.3667 518.167 31.7 516.4 29.7 514.8C27.7 513.133 25.5333 511.533 23.2 510C20.9333 508.4 18.8 506.667 16.8 504.8C14.8 502.867 13.1333 500.667 11.8 498.2C10.4667 495.733 9.8 492.767 9.8 489.3C9.8 483.7 11.4667 479.567 14.8 476.9C18.2 474.167 22.6 472.8 28 472.8C31.3333 472.8 34.3 473.1 36.9 473.7C39.5 474.3 41.6 475.067 43.2 476L40.8 482.6C39.6 481.867 37.8667 481.2 35.6 480.6C33.4 480 30.8333 479.7 27.9 479.7C24.3 479.7 21.6333 480.6 19.9 482.4C18.1667 484.133 17.3 486.333 17.3 489C17.3 491.333 17.9667 493.4 19.3 495.2C20.6333 497 22.3 498.7 24.3 500.3C26.3 501.9 28.4333 503.533 30.7 505.2C33.0333 506.8 35.2 508.6 37.2 510.6C39.2 512.6 40.8667 514.867 42.2 517.4C43.5333 519.933 44.2 522.933 44.2 526.4C44.2 532.267 42.4667 536.867 39 540.2C35.5333 543.533 30.6333 545.2 24.3 545.2C20.3 545.2 17 544.833 14.4 544.1C11.8667 543.367 9.83333 542.533 8.3 541.6L10.9 534.7ZM54.8734 494H62.0734V544H54.8734V494ZM53.5734 478.8C53.5734 477.2 54.0068 475.9 54.8734 474.9C55.8068 473.9 57.0068 473.4 58.4734 473.4C59.9401 473.4 61.1401 473.9 62.0734 474.9C63.0734 475.833 63.5734 477.133 63.5734 478.8C63.5734 480.4 63.0734 481.667 62.0734 482.6C61.1401 483.467 59.9401 483.9 58.4734 483.9C57.0068 483.9 55.8068 483.433 54.8734 482.5C54.0068 481.567 53.5734 480.333 53.5734 478.8ZM106.853 546.3C106.853 552.767 105.42 557.533 102.553 560.6C99.6865 563.667 95.5198 565.2 90.0531 565.2C86.7198 565.2 83.9865 564.9 81.8531 564.3C79.7198 563.767 77.9865 563.133 76.6531 562.4L78.7531 556.2C80.0865 556.8 81.5531 557.367 83.1531 557.9C84.7531 558.433 86.7198 558.7 89.0531 558.7C93.1198 558.7 95.8865 557.567 97.3531 555.3C98.8865 553.033 99.6531 549.233 99.6531 543.9V540.2H99.3531C98.2865 541.733 96.9198 542.933 95.2531 543.8C93.5865 544.667 91.4531 545.1 88.8531 545.1C83.4531 545.1 79.4865 543.033 76.9531 538.9C74.4198 534.7 73.1531 528.133 73.1531 519.2C73.1531 510.6 74.7865 504.1 78.0531 499.7C81.3865 495.3 86.2865 493.1 92.7531 493.1C95.8865 493.1 98.5865 493.4 100.853 494C103.12 494.6 105.12 495.3 106.853 496.1V546.3ZM99.6531 501.2C97.6531 500.133 95.0865 499.6 91.9531 499.6C88.5531 499.6 85.8198 501.167 83.7531 504.3C81.6865 507.367 80.6531 512.3 80.6531 519.1C80.6531 521.9 80.8198 524.5 81.1531 526.9C81.4865 529.233 82.0531 531.3 82.8531 533.1C83.6531 534.833 84.6531 536.2 85.8531 537.2C87.1198 538.133 88.6531 538.6 90.4531 538.6C92.9865 538.6 94.9865 537.933 96.4531 536.6C97.9198 535.267 98.9865 533.267 99.6531 530.6V501.2ZM118.017 497C119.951 495.8 122.284 494.867 125.017 494.2C127.817 493.533 130.751 493.2 133.817 493.2C136.617 493.2 138.851 493.633 140.517 494.5C142.251 495.3 143.584 496.433 144.517 497.9C145.517 499.3 146.151 500.933 146.417 502.8C146.751 504.6 146.917 506.5 146.917 508.5C146.917 512.5 146.817 516.4 146.617 520.2C146.484 524 146.417 527.6 146.417 531C146.417 533.533 146.484 535.9 146.617 538.1C146.817 540.233 147.151 542.267 147.617 544.2H142.117L140.417 538.3H140.017C139.017 540.033 137.551 541.533 135.617 542.8C133.684 544.067 131.084 544.7 127.817 544.7C124.217 544.7 121.251 543.467 118.917 541C116.651 538.467 115.517 535 115.517 530.6C115.517 527.733 115.984 525.333 116.917 523.4C117.917 521.467 119.284 519.9 121.017 518.7C122.817 517.5 124.917 516.667 127.317 516.2C129.784 515.667 132.517 515.4 135.517 515.4C136.184 515.4 136.851 515.4 137.517 515.4C138.184 515.4 138.884 515.433 139.617 515.5C139.817 513.433 139.917 511.6 139.917 510C139.917 506.2 139.351 503.533 138.217 502C137.084 500.467 135.017 499.7 132.017 499.7C130.151 499.7 128.117 500 125.917 500.6C123.717 501.133 121.884 501.833 120.417 502.7L118.017 497ZM139.717 521.2C139.051 521.133 138.384 521.1 137.717 521.1C137.051 521.033 136.384 521 135.717 521C134.117 521 132.551 521.133 131.017 521.4C129.484 521.667 128.117 522.133 126.917 522.8C125.717 523.467 124.751 524.367 124.017 525.5C123.351 526.633 123.017 528.067 123.017 529.8C123.017 532.467 123.651 534.533 124.917 536C126.251 537.467 127.951 538.2 130.017 538.2C132.817 538.2 134.984 537.533 136.517 536.2C138.051 534.867 139.117 533.4 139.717 531.8V521.2ZM166.256 532.1C166.256 534.433 166.556 536.1 167.156 537.1C167.823 538.1 168.723 538.6 169.856 538.6C171.256 538.6 172.89 538.233 174.756 537.5L175.456 543.3C174.59 543.833 173.356 544.267 171.756 544.6C170.223 544.933 168.823 545.1 167.556 545.1C165.023 545.1 162.956 544.333 161.356 542.8C159.823 541.2 159.056 538.433 159.056 534.5V474H166.256V532.1ZM181.896 534.7C183.163 535.567 184.929 536.4 187.196 537.2C189.529 537.933 192.163 538.3 195.096 538.3C198.829 538.3 201.863 537.4 204.196 535.6C206.529 533.733 207.696 530.833 207.696 526.9C207.696 524.3 207.029 522.033 205.696 520.1C204.363 518.167 202.696 516.4 200.696 514.8C198.696 513.133 196.529 511.533 194.196 510C191.929 508.4 189.796 506.667 187.796 504.8C185.796 502.867 184.129 500.667 182.796 498.2C181.463 495.733 180.796 492.767 180.796 489.3C180.796 483.7 182.463 479.567 185.796 476.9C189.196 474.167 193.596 472.8 198.996 472.8C202.329 472.8 205.296 473.1 207.896 473.7C210.496 474.3 212.596 475.067 214.196 476L211.796 482.6C210.596 481.867 208.863 481.2 206.596 480.6C204.396 480 201.829 479.7 198.896 479.7C195.296 479.7 192.629 480.6 190.896 482.4C189.163 484.133 188.296 486.333 188.296 489C188.296 491.333 188.963 493.4 190.296 495.2C191.629 497 193.296 498.7 195.296 500.3C197.296 501.9 199.429 503.533 201.696 505.2C204.029 506.8 206.196 508.6 208.196 510.6C210.196 512.6 211.863 514.867 213.196 517.4C214.529 519.933 215.196 522.933 215.196 526.4C215.196 532.267 213.463 536.867 209.996 540.2C206.529 543.533 201.629 545.2 195.296 545.2C191.296 545.2 187.996 544.833 185.396 544.1C182.863 543.367 180.829 542.533 179.296 541.6L181.896 534.7ZM224.67 494H229.77L230.87 499.4H231.27C233.736 495 237.603 492.8 242.87 492.8C248.136 492.8 252.07 494.767 254.67 498.7C257.336 502.633 258.67 509.067 258.67 518C258.67 522.2 258.236 526 257.37 529.4C256.503 532.733 255.27 535.6 253.67 538C252.07 540.333 250.103 542.133 247.77 543.4C245.503 544.6 242.97 545.2 240.17 545.2C238.236 545.2 236.703 545.067 235.57 544.8C234.436 544.6 233.203 544.133 231.87 543.4V564H224.67V494ZM231.87 536.1C232.803 536.9 233.836 537.533 234.97 538C236.17 538.467 237.736 538.7 239.67 538.7C243.203 538.7 246.003 536.9 248.07 533.3C250.136 529.7 251.17 524.567 251.17 517.9C251.17 515.1 250.97 512.567 250.57 510.3C250.236 508.033 249.67 506.1 248.87 504.5C248.07 502.833 247.036 501.567 245.77 500.7C244.57 499.767 243.07 499.3 241.27 499.3C236.403 499.3 233.27 502.267 231.87 508.2V536.1ZM265.927 519C265.927 510 267.46 503.4 270.527 499.2C273.66 494.933 278.093 492.8 283.827 492.8C289.96 492.8 294.46 494.967 297.327 499.3C300.26 503.633 301.727 510.2 301.727 519C301.727 528.067 300.16 534.7 297.027 538.9C293.893 543.1 289.493 545.2 283.827 545.2C277.693 545.2 273.16 543.033 270.227 538.7C267.36 534.367 265.927 527.8 265.927 519ZM273.427 519C273.427 521.933 273.593 524.6 273.927 527C274.327 529.4 274.927 531.467 275.727 533.2C276.593 534.933 277.693 536.3 279.027 537.3C280.36 538.233 281.96 538.7 283.827 538.7C287.293 538.7 289.893 537.167 291.627 534.1C293.36 530.967 294.227 525.933 294.227 519C294.227 516.133 294.027 513.5 293.627 511.1C293.293 508.633 292.693 506.533 291.827 504.8C291.027 503.067 289.96 501.733 288.627 500.8C287.293 499.8 285.693 499.3 283.827 499.3C280.427 499.3 277.827 500.867 276.027 504C274.293 507.133 273.427 512.133 273.427 519ZM311.291 494H316.391L317.691 499.3H317.991C318.924 497.367 320.124 495.867 321.591 494.8C323.124 493.667 324.957 493.1 327.091 493.1C328.624 493.1 330.357 493.4 332.291 494L330.891 501.3C329.157 500.7 327.624 500.4 326.291 500.4C324.157 500.4 322.424 501.033 321.091 502.3C319.757 503.5 318.891 505.133 318.491 507.2V544H311.291V494ZM336.173 494H342.273V484.1L349.473 481.8V494H360.273V500.5H349.473V530.3C349.473 533.233 349.807 535.367 350.473 536.7C351.207 537.967 352.373 538.6 353.973 538.6C355.307 538.6 356.44 538.467 357.373 538.2C358.373 537.867 359.44 537.467 360.573 537L361.973 542.7C360.507 543.433 358.873 544 357.073 544.4C355.34 544.867 353.507 545.1 351.573 545.1C348.24 545.1 345.84 544.033 344.373 541.9C342.973 539.7 342.273 536.167 342.273 531.3V500.5H336.173V494Z" fill="#232323"/>
</svg>
